ffmpeg version N-95032-g3104100a12 Copyright (c) 2000-2019 the FFmpeg developers
  built with gcc 9.2.1 (GCC) 20190918
  configuration: --enable-gpl --enable-version3 --enable-sdl2 --enable-fontconfig --enable-gnutls --enable-iconv --enable-libass --enable-libdav1d --enable-libbluray --enable-libfreetype --enable-libmp3lame --enable-libopencore-amrnb --enable-libopencore-amrwb --enable-libopenjpeg --enable-libopus --enable-libshine --enable-libsnappy --enable-libsoxr --enable-libtheora --enable-libtwolame --enable-libvpx --enable-libwavpack --enable-libwebp --enable-libx264 --enable-libx265 --enable-libxml2 --enable-libzimg --enable-lzma --enable-zlib --enable-gmp --enable-libvidstab --enable-libvorbis --enable-libvo-amrwbenc --enable-libmysofa --enable-libspeex --enable-libxvid --enable-libaom --enable-libmfx --enable-ffnvcodec --enable-cuvid --enable-d3d11va --enable-nvenc --enable-nvdec --enable-dxva2 --enable-avisynth --enable-libopenmpt --enable-amf
  libavutil      56. 35.100 / 56. 35.100
  libavcodec     58. 58.101 / 58. 58.101
  libavformat    58. 33.100 / 58. 33.100
  libavdevice    58.  9.100 / 58.  9.100
  libavfilter     7. 58.102 /  7. 58.102
  libswscale      5.  6.100 /  5.  6.100
  libswresample   3.  6.100 /  3.  6.100
  libpostproc    55.  6.100 / 55.  6.100
Splitting the commandline.
Reading option '-v' ... matched as option 'v' (set logging level) with argument 'debug'.
Reading option '-nostdin' ... matched as option 'stdin' (enable or disable interaction on standard input) with argument 0.
Reading option '-progress' ... matched as option 'progress' (write program-readable progress information) with argument 'C:/Users/kand8/AppData/Local/Temp/KritaFFmpegProgress.uUUEbg'.
Reading option '-r' ... matched as option 'r' (set frame rate (Hz value, fraction or abbreviation)) with argument '24'.
Reading option '-start_number' ... matched as AVOption 'start_number' with argument '0'.
Reading option '-i' ... matched as input url with argument 'C:/Users/kand8/Documents/School 19-20/Animation/DGM2620/frame%04d.png'.
Reading option '-crf' ... matched as AVOption 'crf' with argument '23'.
Reading option '-preset' ... matched as AVOption 'preset' with argument 'medium'.
Reading option '-profile:v' ... matched as option 'profile' (set profile) with argument 'baseline'.
Reading option '-pix_fmt' ... matched as option 'pix_fmt' (set pixel format) with argument 'yuv420p'.
Reading option '-y' ... matched as option 'y' (overwrite output files) with argument '1'.
Reading option 'C:/Users/kand8/Documents/School 19-20/Animation/DGM2620/Fire Burst Assignment.mp4' ... matched as output url.
Finished splitting the commandline.
Parsing a group of options: global .
Applying option v (set logging level) with argument debug.
Applying option nostdin (enable or disable interaction on standard input) with argument 0.
Applying option progress (write program-readable progress information) with argument C:/Users/kand8/AppData/Local/Temp/KritaFFmpegProgress.uUUEbg.
[file @ 0000027cc29fae40] Setting default whitelist 'file,crypto'
Applying option y (overwrite output files) with argument 1.
Successfully parsed a group of options.
Parsing a group of options: input url C:/Users/kand8/Documents/School 19-20/Animation/DGM2620/frame%04d.png.
Applying option r (set frame rate (Hz value, fraction or abbreviation)) with argument 24.
Successfully parsed a group of options.
Opening an input file: C:/Users/kand8/Documents/School 19-20/Animation/DGM2620/frame%04d.png.
[image2 @ 0000027cc2a3ba40] Opening 'C:/Users/kand8/Documents/School 19-20/Animation/DGM2620/frame0000.png' for reading
[file @ 0000027cc2a3f000] Setting default whitelist 'file,crypto'
[AVIOContext @ 0000027cc2a47200] Statistics: 367236 bytes read, 0 seeks
[image2 @ 0000027cc2a3ba40] Opening 'C:/Users/kand8/Documents/School 19-20/Animation/DGM2620/frame0001.png' for reading
[file @ 0000027cc2aa0f80] Setting default whitelist 'file,crypto'
[AVIOContext @ 0000027cc2aab000] Statistics: 402352 bytes read, 0 seeks
[image2 @ 0000027cc2a3ba40] Opening 'C:/Users/kand8/Documents/School 19-20/Animation/DGM2620/frame0002.png' for reading
[file @ 0000027cc2aab300] Setting default whitelist 'file,crypto'
[AVIOContext @ 0000027cc3762500] Statistics: 437222 bytes read, 0 seeks
[image2 @ 0000027cc2a3ba40] Opening 'C:/Users/kand8/Documents/School 19-20/Animation/DGM2620/frame0003.png' for reading
[file @ 0000027cc2ab35c0] Setting default whitelist 'file,crypto'
[AVIOContext @ 0000027cc2ab3340] Statistics: 524863 bytes read, 0 seeks
[image2 @ 0000027cc2a3ba40] Opening 'C:/Users/kand8/Documents/School 19-20/Animation/DGM2620/frame0004.png' for reading
[file @ 0000027cc2ab37c0] Setting default whitelist 'file,crypto'
[AVIOContext @ 0000027cc2ab3340] Statistics: 555073 bytes read, 0 seeks
[image2 @ 0000027cc2a3ba40] Opening 'C:/Users/kand8/Documents/School 19-20/Animation/DGM2620/frame0005.png' for reading
[file @ 0000027cc2ab3980] Setting default whitelist 'file,crypto'
[AVIOContext @ 0000027cc2ab3340] Statistics: 700849 bytes read, 0 seeks
[image2 @ 0000027cc2a3ba40] Opening 'C:/Users/kand8/Documents/School 19-20/Animation/DGM2620/frame0006.png' for reading
[file @ 0000027cc2ab3b80] Setting default whitelist 'file,crypto'
[AVIOContext @ 0000027cc2ab3340] Statistics: 792048 bytes read, 0 seeks
[image2 @ 0000027cc2a3ba40] Opening 'C:/Users/kand8/Documents/School 19-20/Animation/DGM2620/frame0007.png' for reading
[file @ 0000027cc2ab3d80] Setting default whitelist 'file,crypto'
[AVIOContext @ 0000027cc2ab3340] Statistics: 701593 bytes read, 0 seeks
[image2 @ 0000027cc2a3ba40] Opening 'C:/Users/kand8/Documents/School 19-20/Animation/DGM2620/frame0008.png' for reading
[file @ 0000027cc2ab3f80] Setting default whitelist 'file,crypto'
[AVIOContext @ 0000027cc2ab3340] Statistics: 765474 bytes read, 0 seeks
[image2 @ 0000027cc2a3ba40] Probe buffer size limit of 5000000 bytes reached
Input #0, image2, from 'C:/Users/kand8/Documents/School 19-20/Animation/DGM2620/frame%04d.png':
  Duration: 00:00:04.04, start: 0.000000, bitrate: N/A
    Stream #0:0, 9, 1/25: Video: png, 1 reference frame, rgba(pc), 1756x1240 [SAR 11811:11811 DAR 439:310], 0/1, 25 fps, 25 tbr, 25 tbn, 25 tbc
Successfully opened the file.
Parsing a group of options: output url C:/Users/kand8/Documents/School 19-20/Animation/DGM2620/Fire Burst Assignment.mp4.
Applying option profile:v (set profile) with argument baseline.
Applying option pix_fmt (set pixel format) with argument yuv420p.
Successfully parsed a group of options.
Opening an output file: C:/Users/kand8/Documents/School 19-20/Animation/DGM2620/Fire Burst Assignment.mp4.
[file @ 0000027cc38d7800] Setting default whitelist 'file,crypto'
Successfully opened the file.
detected 8 logical cores
Stream mapping:
  Stream #0:0 -> #0:0 (png (native) -> h264 (libx264))
cur_dts is invalid st:0 (0) [init:0 i_done:0 finish:0] (this is harmless if it occurs once at the start per stream)
    Last message repeated 8 times
[graph 0 input from stream 0:0 @ 0000027cc2ab3f00] Setting 'video_size' to value '1756x1240'
[graph 0 input from stream 0:0 @ 0000027cc2ab3f00] Setting 'pix_fmt' to value '26'
[graph 0 input from stream 0:0 @ 0000027cc2ab3f00] Setting 'time_base' to value '1/24'
[graph 0 input from stream 0:0 @ 0000027cc2ab3f00] Setting 'pixel_aspect' to value '11811/11811'
[graph 0 input from stream 0:0 @ 0000027cc2ab3f00] Setting 'sws_param' to value 'flags=2'
[graph 0 input from stream 0:0 @ 0000027cc2ab3f00] Setting 'frame_rate' to value '24/1'
[graph 0 input from stream 0:0 @ 0000027cc2ab3f00] w:1756 h:1240 pixfmt:rgba tb:1/24 fr:24/1 sar:11811/11811 sws_param:flags=2
[format @ 0000027cc2ab3940] Setting 'pix_fmts' to value 'yuv420p'
[auto_scaler_0 @ 0000027cc2ab3540] Setting 'flags' to value 'bicubic'
[auto_scaler_0 @ 0000027cc2ab3540] w:iw h:ih flags:'bicubic' interl:0
[format @ 0000027cc2ab3940] auto-inserting filter 'auto_scaler_0' between the filter 'Parsed_null_0' and the filter 'format'
[AVFilterGraph @ 0000027cc3762500] query_formats: 4 queried, 2 merged, 1 already done, 0 delayed
[auto_scaler_0 @ 0000027cc2ab3540] w:1756 h:1240 fmt:rgba sar:11811/11811 -> w:1756 h:1240 fmt:yuv420p sar:1/1 flags:0x4
[libx264 @ 0000027cc38d6580] using mv_range_thread = 40
[libx264 @ 0000027cc38d6580] using SAR=1/1
[libx264 @ 0000027cc38d6580] using cpu capabilities: MMX2 SSE2Fast SSSE3 SSE4.2 AVX FMA3 BMI2 AVX2
[libx264 @ 0000027cc38d6580] profile Constrained Baseline, level 4.2, 4:2:0, 8-bit
[libx264 @ 0000027cc38d6580] 264 - core 158 r2984 3759fcb - H.264/MPEG-4 AVC codec - Copyleft 2003-2019 - http://www.videolan.org/x264.html - options: cabac=0 ref=3 deblock=1:0:0 analyse=0x1:0x111 me=hex subme=7 psy=1 psy_rd=1.00:0.00 mixed_ref=1 me_range=16 chroma_me=1 trellis=1 8x8dct=0 cqm=0 deadzone=21,11 fast_pskip=1 chroma_qp_offset=-2 threads=12 lookahead_threads=2 sliced_threads=0 nr=0 decimate=1 interlaced=0 bluray_compat=0 constrained_intra=0 bframes=0 weightp=0 keyint=250 keyint_min=24 scenecut=40 intra_refresh=0 rc_lookahead=40 rc=crf mbtree=1 crf=23.0 qcomp=0.60 qpmin=0 qpmax=69 qpstep=4 ip_ratio=1.40 aq=1:1.00
Output #0, mp4, to 'C:/Users/kand8/Documents/School 19-20/Animation/DGM2620/Fire Burst Assignment.mp4':
  Metadata:
    encoder         : Lavf58.33.100
    Stream #0:0, 0, 1/12288: Video: h264 (libx264), 1 reference frame (avc1 / 0x31637661), yuv420p, 1756x1240 [SAR 1:1 DAR 439:310], 0/1, q=-1--1, 24 fps, 12288 tbn, 24 tbc
    Metadata:
      encoder         : Lavc58.58.101 libx264
    Side data:
      cpb: bitrate max/min/avg: 0/0/0 buffer size: 0 vbv_delay: N/A
Clipping frame in rate conversion by 0.000008
cur_dts is invalid st:0 (0) [init:1 i_done:0 finish:0] (this is harmless if it occurs once at the start per stream)
[image2 @ 0000027cc2a3ba40] Opening 'C:/Users/kand8/Documents/School 19-20/Animation/DGM2620/frame0009.png' for reading
[file @ 0000027cc3cbcb40] Setting default whitelist 'file,crypto'
[AVIOContext @ 0000027cc38fd7c0] Statistics: 793619 bytes read, 0 seeks
cur_dts is invalid st:0 (0) [init:1 i_done:0 finish:0] (this is harmless if it occurs once at the start per stream)
[image2 @ 0000027cc2a3ba40] Opening 'C:/Users/kand8/Documents/School 19-20/Animation/DGM2620/frame0010.png' for reading
[file @ 0000027cc3cbd740] Setting default whitelist 'file,crypto'
[AVIOContext @ 0000027cc38fd7c0] Statistics: 780345 bytes read, 0 seeks
cur_dts is invalid st:0 (0) [init:1 i_done:0 finish:0] (this is harmless if it occurs once at the start per stream)
[image2 @ 0000027cc2a3ba40] Opening 'C:/Users/kand8/Documents/School 19-20/Animation/DGM2620/frame0011.png' for reading
[file @ 0000027cc3cbbf40] Setting default whitelist 'file,crypto'
[AVIOContext @ 0000027cc3c787c0] Statistics: 701396 bytes read, 0 seeks
cur_dts is invalid st:0 (0) [init:1 i_done:0 finish:0] (this is harmless if it occurs once at the start per stream)
[image2 @ 0000027cc2a3ba40] Opening 'C:/Users/kand8/Documents/School 19-20/Animation/DGM2620/frame0012.png' for reading
[file @ 0000027cc3cbd940] Setting default whitelist 'file,crypto'
[AVIOContext @ 0000027cc3c787c0] Statistics: 737813 bytes read, 0 seeks
cur_dts is invalid st:0 (0) [init:1 i_done:0 finish:0] (this is harmless if it occurs once at the start per stream)
[image2 @ 0000027cc2a3ba40] Opening 'C:/Users/kand8/Documents/School 19-20/Animation/DGM2620/frame0013.png' for reading
[file @ 0000027cc3cbcf40] Setting default whitelist 'file,crypto'
[AVIOContext @ 0000027cc3c787c0] Statistics: 600889 bytes read, 0 seeks
cur_dts is invalid st:0 (0) [init:1 i_done:0 finish:0] (this is harmless if it occurs once at the start per stream)
[image2 @ 0000027cc2a3ba40] Opening 'C:/Users/kand8/Documents/School 19-20/Animation/DGM2620/frame0014.png' for reading
[file @ 0000027cc3cbd240] Setting default whitelist 'file,crypto'
[AVIOContext @ 0000027cc3c787c0] Statistics: 614501 bytes read, 0 seeks
cur_dts is invalid st:0 (0) [init:1 i_done:0 finish:0] (this is harmless if it occurs once at the start per stream)
[image2 @ 0000027cc2a3ba40] Opening 'C:/Users/kand8/Documents/School 19-20/Animation/DGM2620/frame0015.png' for reading
[file @ 0000027cc3cbc140] Setting default whitelist 'file,crypto'
[AVIOContext @ 0000027cc38fd7c0] Statistics: 534496 bytes read, 0 seeks
cur_dts is invalid st:0 (0) [init:1 i_done:0 finish:0] (this is harmless if it occurs once at the start per stream)
[image2 @ 0000027cc2a3ba40] Opening 'C:/Users/kand8/Documents/School 19-20/Animation/DGM2620/frame0016.png' for reading
[file @ 0000027cc3cbcc40] Setting default whitelist 'file,crypto'
[AVIOContext @ 0000027cc3c787c0] Statistics: 528497 bytes read, 0 seeks
cur_dts is invalid st:0 (0) [init:1 i_done:0 finish:0] (this is harmless if it occurs once at the start per stream)
[image2 @ 0000027cc2a3ba40] Opening 'C:/Users/kand8/Documents/School 19-20/Animation/DGM2620/frame0017.png' for reading
[file @ 0000027cc3cbd240] Setting default whitelist 'file,crypto'
[AVIOContext @ 0000027cc3c787c0] Statistics: 499628 bytes read, 0 seeks
cur_dts is invalid st:0 (0) [init:1 i_done:0 finish:0] (this is harmless if it occurs once at the start per stream)
[image2 @ 0000027cc2a3ba40] Opening 'C:/Users/kand8/Documents/School 19-20/Animation/DGM2620/frame0018.png' for reading
[file @ 0000027cc3cbca40] Setting default whitelist 'file,crypto'
[AVIOContext @ 0000027cc2ab4000] Statistics: 529189 bytes read, 0 seeks
cur_dts is invalid st:0 (0) [init:1 i_done:0 finish:0] (this is harmless if it occurs once at the start per stream)
[image2 @ 0000027cc2a3ba40] Opening 'C:/Users/kand8/Documents/School 19-20/Animation/DGM2620/frame0019.png' for reading
[file @ 0000027cc3cbc740] Setting default whitelist 'file,crypto'
[AVIOContext @ 0000027cc2ab4000] Statistics: 492059 bytes read, 0 seeks
cur_dts is invalid st:0 (0) [init:1 i_done:0 finish:0] (this is harmless if it occurs once at the start per stream)
[image2 @ 0000027cc2a3ba40] Opening 'C:/Users/kand8/Documents/School 19-20/Animation/DGM2620/frame0020.png' for reading
[file @ 0000027cc3cbce40] Setting default whitelist 'file,crypto'
[AVIOContext @ 0000027cc2ab4000] Statistics: 529946 bytes read, 0 seeks
cur_dts is invalid st:0 (0) [init:1 i_done:0 finish:0] (this is harmless if it occurs once at the start per stream)
[image2 @ 0000027cc2a3ba40] Opening 'C:/Users/kand8/Documents/School 19-20/Animation/DGM2620/frame0021.png' for reading
[file @ 0000027cc3cbd540] Setting default whitelist 'file,crypto'
[AVIOContext @ 0000027cc2ab4000] Statistics: 492287 bytes read, 0 seeks
cur_dts is invalid st:0 (0) [init:1 i_done:0 finish:0] (this is harmless if it occurs once at the start per stream)
[image2 @ 0000027cc2a3ba40] Opening 'C:/Users/kand8/Documents/School 19-20/Animation/DGM2620/frame0022.png' for reading
[file @ 0000027cc3cbc840] Setting default whitelist 'file,crypto'
[AVIOContext @ 0000027cc2ab4000] Statistics: 510074 bytes read, 0 seeks
cur_dts is invalid st:0 (0) [init:1 i_done:0 finish:0] (this is harmless if it occurs once at the start per stream)
[image2 @ 0000027cc2a3ba40] Opening 'C:/Users/kand8/Documents/School 19-20/Animation/DGM2620/frame0023.png' for reading
[file @ 0000027cc3cbcc40] Setting default whitelist 'file,crypto'
[AVIOContext @ 0000027cc2ab4000] Statistics: 473410 bytes read, 0 seeks
cur_dts is invalid st:0 (0) [init:1 i_done:0 finish:0] (this is harmless if it occurs once at the start per stream)
[image2 @ 0000027cc2a3ba40] Opening 'C:/Users/kand8/Documents/School 19-20/Animation/DGM2620/frame0024.png' for reading
[file @ 0000027cc3cbd340] Setting default whitelist 'file,crypto'
[AVIOContext @ 0000027cc3a7dac0] Statistics: 493557 bytes read, 0 seeks
frame=   17 fps=0.0 q=0.0 size=       0kB time=00:00:00.00 bitrate=N/A speed=   0x    cur_dts is invalid st:0 (0) [init:1 i_done:0 finish:0] (this is harmless if it occurs once at the start per stream)
[image2 @ 0000027cc2a3ba40] Opening 'C:/Users/kand8/Documents/School 19-20/Animation/DGM2620/frame0025.png' for reading
[file @ 0000027cc3cbd240] Setting default whitelist 'file,crypto'
[AVIOContext @ 0000027cc3a7e7c0] Statistics: 506144 bytes read, 0 seeks
cur_dts is invalid st:0 (0) [init:1 i_done:0 finish:0] (this is harmless if it occurs once at the start per stream)
[image2 @ 0000027cc2a3ba40] Opening 'C:/Users/kand8/Documents/School 19-20/Animation/DGM2620/frame0026.png' for reading
[file @ 0000027cc3cbca40] Setting default whitelist 'file,crypto'
[AVIOContext @ 0000027cc3a7e000] Statistics: 522136 bytes read, 0 seeks
cur_dts is invalid st:0 (0) [init:1 i_done:0 finish:0] (this is harmless if it occurs once at the start per stream)
[image2 @ 0000027cc2a3ba40] Opening 'C:/Users/kand8/Documents/School 19-20/Animation/DGM2620/frame0027.png' for reading
[file @ 0000027cc3cbcc40] Setting default whitelist 'file,crypto'
[AVIOContext @ 0000027cc3a7e3c0] Statistics: 532366 bytes read, 0 seeks
cur_dts is invalid st:0 (0) [init:1 i_done:0 finish:0] (this is harmless if it occurs once at the start per stream)
[image2 @ 0000027cc2a3ba40] Opening 'C:/Users/kand8/Documents/School 19-20/Animation/DGM2620/frame0028.png' for reading
[file @ 0000027cc3cbc940] Setting default whitelist 'file,crypto'
[AVIOContext @ 0000027cc3a7e280] Statistics: 559725 bytes read, 0 seeks
cur_dts is invalid st:0 (0) [init:1 i_done:0 finish:0] (this is harmless if it occurs once at the start per stream)
[image2 @ 0000027cc2a3ba40] Opening 'C:/Users/kand8/Documents/School 19-20/Animation/DGM2620/frame0029.png' for reading
[file @ 0000027cc3cbbe40] Setting default whitelist 'file,crypto'
[AVIOContext @ 0000027cc3a7e140] Statistics: 529686 bytes read, 0 seeks
cur_dts is invalid st:0 (0) [init:1 i_done:0 finish:0] (this is harmless if it occurs once at the start per stream)
[image2 @ 0000027cc2a3ba40] Opening 'C:/Users/kand8/Documents/School 19-20/Animation/DGM2620/frame0030.png' for reading
[file @ 0000027cc3cbc440] Setting default whitelist 'file,crypto'
[AVIOContext @ 0000027cc3a7e140] Statistics: 541865 bytes read, 0 seeks
cur_dts is invalid st:0 (0) [init:1 i_done:0 finish:0] (this is harmless if it occurs once at the start per stream)
[image2 @ 0000027cc2a3ba40] Opening 'C:/Users/kand8/Documents/School 19-20/Animation/DGM2620/frame0031.png' for reading
[file @ 0000027cc3cbc140] Setting default whitelist 'file,crypto'
[AVIOContext @ 0000027cc3a7e280] Statistics: 518895 bytes read, 0 seeks
cur_dts is invalid st:0 (0) [init:1 i_done:0 finish:0] (this is harmless if it occurs once at the start per stream)
[image2 @ 0000027cc2a3ba40] Opening 'C:/Users/kand8/Documents/School 19-20/Animation/DGM2620/frame0032.png' for reading
[file @ 0000027cc3cbcc40] Setting default whitelist 'file,crypto'
[AVIOContext @ 0000027cc3a7e540] Statistics: 529257 bytes read, 0 seeks
cur_dts is invalid st:0 (0) [init:1 i_done:0 finish:0] (this is harmless if it occurs once at the start per stream)
[image2 @ 0000027cc2a3ba40] Opening 'C:/Users/kand8/Documents/School 19-20/Animation/DGM2620/frame0033.png' for reading
[file @ 0000027cc3cbc740] Setting default whitelist 'file,crypto'
[AVIOContext @ 0000027cc3a7e3c0] Statistics: 509662 bytes read, 0 seeks
cur_dts is invalid st:0 (0) [init:1 i_done:0 finish:0] (this is harmless if it occurs once at the start per stream)
[image2 @ 0000027cc2a3ba40] Opening 'C:/Users/kand8/Documents/School 19-20/Animation/DGM2620/frame0034.png' for reading
[file @ 0000027cc3cbc140] Setting default whitelist 'file,crypto'
[AVIOContext @ 0000027cc3a7e3c0] Statistics: 555501 bytes read, 0 seeks
cur_dts is invalid st:0 (0) [init:1 i_done:0 finish:0] (this is harmless if it occurs once at the start per stream)
[image2 @ 0000027cc2a3ba40] Opening 'C:/Users/kand8/Documents/School 19-20/Animation/DGM2620/frame0035.png' for reading
[file @ 0000027cc3cbc840] Setting default whitelist 'file,crypto'
[AVIOContext @ 0000027cc3a7e540] Statistics: 517086 bytes read, 0 seeks
cur_dts is invalid st:0 (0) [init:1 i_done:0 finish:0] (this is harmless if it occurs once at the start per stream)
[image2 @ 0000027cc2a3ba40] Opening 'C:/Users/kand8/Documents/School 19-20/Animation/DGM2620/frame0036.png' for reading
[file @ 0000027cc3cbc840] Setting default whitelist 'file,crypto'
[AVIOContext @ 0000027cc3a7e7c0] Statistics: 549548 bytes read, 0 seeks
cur_dts is invalid st:0 (0) [init:1 i_done:0 finish:0] (this is harmless if it occurs once at the start per stream)
[image2 @ 0000027cc2a3ba40] Opening 'C:/Users/kand8/Documents/School 19-20/Animation/DGM2620/frame0037.png' for reading
[file @ 0000027cc3cbc140] Setting default whitelist 'file,crypto'
[AVIOContext @ 0000027cc3a7e3c0] Statistics: 514860 bytes read, 0 seeks
cur_dts is invalid st:0 (0) [init:1 i_done:0 finish:0] (this is harmless if it occurs once at the start per stream)
[image2 @ 0000027cc2a3ba40] Opening 'C:/Users/kand8/Documents/School 19-20/Animation/DGM2620/frame0038.png' for reading
[file @ 0000027cc3cbbf40] Setting default whitelist 'file,crypto'
[AVIOContext @ 0000027cc3a7dd40] Statistics: 526119 bytes read, 0 seeks
cur_dts is invalid st:0 (0) [init:1 i_done:0 finish:0] (this is harmless if it occurs once at the start per stream)
[image2 @ 0000027cc2a3ba40] Opening 'C:/Users/kand8/Documents/School 19-20/Animation/DGM2620/frame0039.png' for reading
[file @ 0000027cc3cbc440] Setting default whitelist 'file,crypto'
[AVIOContext @ 0000027cc3a7dac0] Statistics: 529684 bytes read, 0 seeks
cur_dts is invalid st:0 (0) [init:1 i_done:0 finish:0] (this is harmless if it occurs once at the start per stream)
[image2 @ 0000027cc2a3ba40] Opening 'C:/Users/kand8/Documents/School 19-20/Animation/DGM2620/frame0040.png' for reading
[file @ 0000027cc3cbce40] Setting default whitelist 'file,crypto'
[AVIOContext @ 0000027cc3a7dc00] Statistics: 527981 bytes read, 0 seeks
cur_dts is invalid st:0 (0) [init:1 i_done:0 finish:0] (this is harmless if it occurs once at the start per stream)
[image2 @ 0000027cc2a3ba40] Opening 'C:/Users/kand8/Documents/School 19-20/Animation/DGM2620/frame0041.png' for reading
[file @ 0000027cc3cbc140] Setting default whitelist 'file,crypto'
[AVIOContext @ 0000027cc3a7e280] Statistics: 473999 bytes read, 0 seeks
cur_dts is invalid st:0 (0) [init:1 i_done:0 finish:0] (this is harmless if it occurs once at the start per stream)
[image2 @ 0000027cc2a3ba40] Opening 'C:/Users/kand8/Documents/School 19-20/Animation/DGM2620/frame0042.png' for reading
[file @ 0000027cc3cbd640] Setting default whitelist 'file,crypto'
[AVIOContext @ 0000027cc3a7dc00] Statistics: 472648 bytes read, 0 seeks
cur_dts is invalid st:0 (0) [init:1 i_done:0 finish:0] (this is harmless if it occurs once at the start per stream)
[image2 @ 0000027cc2a3ba40] Opening 'C:/Users/kand8/Documents/School 19-20/Animation/DGM2620/frame0043.png' for reading
[file @ 0000027cc3cbd240] Setting default whitelist 'file,crypto'
[AVIOContext @ 0000027cc3a7e680] Statistics: 455151 bytes read, 0 seeks
frame=   36 fps= 35 q=0.0 size=       0kB time=00:00:00.00 bitrate=N/A speed=   0x    cur_dts is invalid st:0 (0) [init:1 i_done:0 finish:0] (this is harmless if it occurs once at the start per stream)
[image2 @ 0000027cc2a3ba40] Opening 'C:/Users/kand8/Documents/School 19-20/Animation/DGM2620/frame0044.png' for reading
[file @ 0000027cc3cbd240] Setting default whitelist 'file,crypto'
[AVIOContext @ 0000027cc3a7dc00] Statistics: 481325 bytes read, 0 seeks
cur_dts is invalid st:0 (0) [init:1 i_done:0 finish:0] (this is harmless if it occurs once at the start per stream)
[image2 @ 0000027cc2a3ba40] Opening 'C:/Users/kand8/Documents/School 19-20/Animation/DGM2620/frame0045.png' for reading
[file @ 0000027cc3cbc640] Setting default whitelist 'file,crypto'
[AVIOContext @ 0000027cc3a7de80] Statistics: 506161 bytes read, 0 seeks
cur_dts is invalid st:0 (0) [init:1 i_done:0 finish:0] (this is harmless if it occurs once at the start per stream)
[image2 @ 0000027cc2a3ba40] Opening 'C:/Users/kand8/Documents/School 19-20/Animation/DGM2620/frame0046.png' for reading
[file @ 0000027cc3cbd240] Setting default whitelist 'file,crypto'
[AVIOContext @ 0000027cc3a7e7c0] Statistics: 473628 bytes read, 0 seeks
cur_dts is invalid st:0 (0) [init:1 i_done:0 finish:0] (this is harmless if it occurs once at the start per stream)
[image2 @ 0000027cc2a3ba40] Opening 'C:/Users/kand8/Documents/School 19-20/Animation/DGM2620/frame0047.png' for reading
[file @ 0000027cc3cbca40] Setting default whitelist 'file,crypto'
[AVIOContext @ 0000027cc3a7de80] Statistics: 472140 bytes read, 0 seeks
cur_dts is invalid st:0 (0) [init:1 i_done:0 finish:0] (this is harmless if it occurs once at the start per stream)
[image2 @ 0000027cc2a3ba40] Opening 'C:/Users/kand8/Documents/School 19-20/Animation/DGM2620/frame0048.png' for reading
[file @ 0000027cc3cbc040] Setting default whitelist 'file,crypto'
[AVIOContext @ 0000027cc3a7dc00] Statistics: 444630 bytes read, 0 seeks
cur_dts is invalid st:0 (0) [init:1 i_done:0 finish:0] (this is harmless if it occurs once at the start per stream)
[image2 @ 0000027cc2a3ba40] Opening 'C:/Users/kand8/Documents/School 19-20/Animation/DGM2620/frame0049.png' for reading
[file @ 0000027cc3cbcc40] Setting default whitelist 'file,crypto'
[AVIOContext @ 0000027cc3a7dd40] Statistics: 470960 bytes read, 0 seeks
cur_dts is invalid st:0 (0) [init:1 i_done:0 finish:0] (this is harmless if it occurs once at the start per stream)
[image2 @ 0000027cc2a3ba40] Opening 'C:/Users/kand8/Documents/School 19-20/Animation/DGM2620/frame0050.png' for reading
[file @ 0000027cc3cbd540] Setting default whitelist 'file,crypto'
[AVIOContext @ 0000027cc3a7dd40] Statistics: 452686 bytes read, 0 seeks
cur_dts is invalid st:0 (0) [init:1 i_done:0 finish:0] (this is harmless if it occurs once at the start per stream)
[image2 @ 0000027cc2a3ba40] Opening 'C:/Users/kand8/Documents/School 19-20/Animation/DGM2620/frame0051.png' for reading
[file @ 0000027cc3cbc040] Setting default whitelist 'file,crypto'
[AVIOContext @ 0000027cc3a7dd40] Statistics: 468528 bytes read, 0 seeks
cur_dts is invalid st:0 (0) [init:1 i_done:0 finish:0] (this is harmless if it occurs once at the start per stream)
[image2 @ 0000027cc2a3ba40] Opening 'C:/Users/kand8/Documents/School 19-20/Animation/DGM2620/frame0052.png' for reading
[file @ 0000027cc3cbbc40] Setting default whitelist 'file,crypto'
[AVIOContext @ 0000027cc3a7e7c0] Statistics: 434168 bytes read, 0 seeks
cur_dts is invalid st:0 (0) [init:1 i_done:0 finish:0] (this is harmless if it occurs once at the start per stream)
[image2 @ 0000027cc2a3ba40] Opening 'C:/Users/kand8/Documents/School 19-20/Animation/DGM2620/frame0053.png' for reading
[file @ 0000027cc3cbc140] Setting default whitelist 'file,crypto'
[AVIOContext @ 0000027cc3a7e280] Statistics: 450822 bytes read, 0 seeks
cur_dts is invalid st:0 (0) [init:1 i_done:0 finish:0] (this is harmless if it occurs once at the start per stream)
[image2 @ 0000027cc2a3ba40] Opening 'C:/Users/kand8/Documents/School 19-20/Animation/DGM2620/frame0054.png' for reading
[file @ 0000027cc3cbd940] Setting default whitelist 'file,crypto'
[AVIOContext @ 0000027cc3a7de80] Statistics: 415094 bytes read, 0 seeks
frame=   47 fps= 30 q=0.0 size=       0kB time=00:00:00.00 bitrate=N/A speed=   0x    cur_dts is invalid st:0 (0) [init:1 i_done:0 finish:0] (this is harmless if it occurs once at the start per stream)
[image2 @ 0000027cc2a3ba40] Opening 'C:/Users/kand8/Documents/School 19-20/Animation/DGM2620/frame0055.png' for reading
[file @ 0000027cc3cbc840] Setting default whitelist 'file,crypto'
[AVIOContext @ 0000027cc3a7de80] Statistics: 421726 bytes read, 0 seeks
cur_dts is invalid st:0 (0) [init:1 i_done:0 finish:0] (this is harmless if it occurs once at the start per stream)
[image2 @ 0000027cc2a3ba40] Opening 'C:/Users/kand8/Documents/School 19-20/Animation/DGM2620/frame0056.png' for reading
[file @ 0000027cc3cbd240] Setting default whitelist 'file,crypto'
[AVIOContext @ 0000027cc3a7e140] Statistics: 394691 bytes read, 0 seeks
cur_dts is invalid st:0 (0) [init:1 i_done:0 finish:0] (this is harmless if it occurs once at the start per stream)
[image2 @ 0000027cc2a3ba40] Opening 'C:/Users/kand8/Documents/School 19-20/Animation/DGM2620/frame0057.png' for reading
[file @ 0000027cc3cbce40] Setting default whitelist 'file,crypto'
[AVIOContext @ 0000027cc3a7dc00] Statistics: 412583 bytes read, 0 seeks
cur_dts is invalid st:0 (0) [init:1 i_done:0 finish:0] (this is harmless if it occurs once at the start per stream)
[image2 @ 0000027cc2a3ba40] Opening 'C:/Users/kand8/Documents/School 19-20/Animation/DGM2620/frame0058.png' for reading
[file @ 0000027cc3cbcc40] Setting default whitelist 'file,crypto'
[AVIOContext @ 0000027cc3a7e280] Statistics: 397650 bytes read, 0 seeks
cur_dts is invalid st:0 (0) [init:1 i_done:0 finish:0] (this is harmless if it occurs once at the start per stream)
[image2 @ 0000027cc2a3ba40] Opening 'C:/Users/kand8/Documents/School 19-20/Animation/DGM2620/frame0059.png' for reading
[file @ 0000027cc3cbc340] Setting default whitelist 'file,crypto'
[AVIOContext @ 0000027cc3a7e680] Statistics: 394915 bytes read, 0 seeks
cur_dts is invalid st:0 (0) [init:1 i_done:0 finish:0] (this is harmless if it occurs once at the start per stream)
[image2 @ 0000027cc2a3ba40] Opening 'C:/Users/kand8/Documents/School 19-20/Animation/DGM2620/frame0060.png' for reading
[file @ 0000027cc3cbce40] Setting default whitelist 'file,crypto'
[AVIOContext @ 0000027cc3a7dc00] Statistics: 386363 bytes read, 0 seeks
cur_dts is invalid st:0 (0) [init:1 i_done:0 finish:0] (this is harmless if it occurs once at the start per stream)
[image2 @ 0000027cc2a3ba40] Opening 'C:/Users/kand8/Documents/School 19-20/Animation/DGM2620/frame0061.png' for reading
[file @ 0000027cc3cbc140] Setting default whitelist 'file,crypto'
[AVIOContext @ 0000027cc3a7e280] Statistics: 382989 bytes read, 0 seeks
[libx264 @ 0000027cc38d6580] frame=   0 QP=13.40 NAL=3 Slice:I Poc:0   I:8580 P:0    SKIP:0    size=20880 bytes
[image2 @ 0000027cc2a3ba40] Opening 'C:/Users/kand8/Documents/School 19-20/Animation/DGM2620/frame0062.png' for reading
[file @ 0000027cc3cbd640] Setting default whitelist 'file,crypto'
[AVIOContext @ 0000027cc3a7e000] Statistics: 376225 bytes read, 0 seeks
[libx264 @ 0000027cc38d6580] frame=   1 QP=16.30 NAL=2 Slice:P Poc:2   I:288  P:1360 SKIP:6932 size=7998 bytes
[image2 @ 0000027cc2a3ba40] Opening 'C:/Users/kand8/Documents/School 19-20/Animation/DGM2620/frame0063.png' for reading
[file @ 0000027cc3cbd940] Setting default whitelist 'file,crypto'
[AVIOContext @ 0000027cc3a7e3c0] Statistics: 361133 bytes read, 0 seeks
[libx264 @ 0000027cc38d6580] frame=   2 QP=18.19 NAL=2 Slice:P Poc:4   I:379  P:418  SKIP:7783 size=8835 bytes
[image2 @ 0000027cc2a3ba40] Opening 'C:/Users/kand8/Documents/School 19-20/Animation/DGM2620/frame0064.png' for reading
[file @ 0000027cc3cbc540] Setting default whitelist 'file,crypto'
[AVIOContext @ 0000027cc3a7e140] Statistics: 356351 bytes read, 0 seeks
[libx264 @ 0000027cc38d6580] frame=   3 QP=19.89 NAL=2 Slice:P Poc:6   I:636  P:458  SKIP:7486 size=15355 bytes
[image2 @ 0000027cc2a3ba40] Opening 'C:/Users/kand8/Documents/School 19-20/Animation/DGM2620/frame0065.png' for reading
[file @ 0000027cc3cbc340] Setting default whitelist 'file,crypto'
[AVIOContext @ 0000027cc3a7dd40] Statistics: 348163 bytes read, 0 seeks
[libx264 @ 0000027cc38d6580] frame=   4 QP=20.73 NAL=2 Slice:P Poc:8   I:622  P:794  SKIP:7164 size=17058 bytes
[image2 @ 0000027cc2a3ba40] Opening 'C:/Users/kand8/Documents/School 19-20/Animation/DGM2620/frame0066.png' for reading
[file @ 0000027cc3cbbf40] Setting default whitelist 'file,crypto'
[AVIOContext @ 0000027cc3a7e7c0] Statistics: 347987 bytes read, 0 seeks
[libx264 @ 0000027cc38d6580] frame=   5 QP=21.97 NAL=2 Slice:P Poc:10  I:1287 P:991  SKIP:6302 size=31332 bytes
[image2 @ 0000027cc2a3ba40] Opening 'C:/Users/kand8/Documents/School 19-20/Animation/DGM2620/frame0067.png' for reading
[file @ 0000027cc3cbc540] Setting default whitelist 'file,crypto'
[AVIOContext @ 0000027cc3a7e7c0] Statistics: 346220 bytes read, 0 seeks
[libx264 @ 0000027cc38d6580] frame=   6 QP=21.60 NAL=2 Slice:P Poc:12  I:1516 P:1407 SKIP:5657 size=38525 bytes
[image2 @ 0000027cc2a3ba40] Opening 'C:/Users/kand8/Documents/School 19-20/Animation/DGM2620/frame0068.png' for reading
[file @ 0000027cc3cbd340] Setting default whitelist 'file,crypto'
[AVIOContext @ 0000027cc3a7e140] Statistics: 343589 bytes read, 0 seeks
[libx264 @ 0000027cc38d6580] frame=   7 QP=21.94 NAL=2 Slice:P Poc:14  I:1347 P:1689 SKIP:5544 size=31066 bytes
frame=   61 fps= 29 q=28.0 size=       0kB time=00:00:00.29 bitrate=   1.3kbits/s speed=0.139x    [image2 @ 0000027cc2a3ba40] Opening 'C:/Users/kand8/Documents/School 19-20/Animation/DGM2620/frame0069.png' for reading
[file @ 0000027cc3cbca40] Setting default whitelist 'file,crypto'
[AVIOContext @ 0000027cc3a7dac0] Statistics: 348191 bytes read, 0 seeks
[libx264 @ 0000027cc38d6580] frame=   8 QP=21.13 NAL=2 Slice:P Poc:16  I:1417 P:1613 SKIP:5550 size=35625 bytes
[image2 @ 0000027cc2a3ba40] Opening 'C:/Users/kand8/Documents/School 19-20/Animation/DGM2620/frame0070.png' for reading
[file @ 0000027cc3cbc840] Setting default whitelist 'file,crypto'
[AVIOContext @ 0000027cc3a7e680] Statistics: 360298 bytes read, 0 seeks
[libx264 @ 0000027cc38d6580] frame=   9 QP=21.67 NAL=2 Slice:P Poc:18  I:1379 P:1698 SKIP:5503 size=37401 bytes
[image2 @ 0000027cc2a3ba40] Opening 'C:/Users/kand8/Documents/School 19-20/Animation/DGM2620/frame0071.png' for reading
[file @ 0000027cc3cbc140] Setting default whitelist 'file,crypto'
[AVIOContext @ 0000027cc3a7dac0] Statistics: 357957 bytes read, 0 seeks
[libx264 @ 0000027cc38d6580] frame=  10 QP=20.28 NAL=2 Slice:P Poc:20  I:1284 P:1719 SKIP:5577 size=34960 bytes
[image2 @ 0000027cc2a3ba40] Opening 'C:/Users/kand8/Documents/School 19-20/Animation/DGM2620/frame0072.png' for reading
[file @ 0000027cc3cbbc40] Setting default whitelist 'file,crypto'
[AVIOContext @ 0000027cc3a7dac0] Statistics: 371494 bytes read, 0 seeks
[libx264 @ 0000027cc38d6580] frame=  11 QP=20.77 NAL=2 Slice:P Poc:22  I:1027 P:1644 SKIP:5909 size=28344 bytes
[image2 @ 0000027cc2a3ba40] Opening 'C:/Users/kand8/Documents/School 19-20/Animation/DGM2620/frame0073.png' for reading
[file @ 0000027cc3cbd440] Setting default whitelist 'file,crypto'
[AVIOContext @ 0000027cc3a7e000] Statistics: 371649 bytes read, 0 seeks
[libx264 @ 0000027cc38d6580] frame=  12 QP=20.76 NAL=2 Slice:P Poc:24  I:1044 P:1499 SKIP:6037 size=28875 bytes
[image2 @ 0000027cc2a3ba40] Opening 'C:/Users/kand8/Documents/School 19-20/Animation/DGM2620/frame0074.png' for reading
[file @ 0000027cc3cbda40] Setting default whitelist 'file,crypto'
[AVIOContext @ 0000027cc3a7de80] Statistics: 377225 bytes read, 0 seeks
[libx264 @ 0000027cc38d6580] frame=  13 QP=18.89 NAL=2 Slice:P Poc:26  I:920  P:1278 SKIP:6382 size=20697 bytes
[image2 @ 0000027cc2a3ba40] Opening 'C:/Users/kand8/Documents/School 19-20/Animation/DGM2620/frame0075.png' for reading
[file @ 0000027cc3cbbf40] Setting default whitelist 'file,crypto'
[AVIOContext @ 0000027cc3a7e000] Statistics: 365555 bytes read, 0 seeks
[libx264 @ 0000027cc38d6580] frame=  14 QP=19.63 NAL=2 Slice:P Poc:28  I:783  P:1087 SKIP:6710 size=20009 bytes
[image2 @ 0000027cc2a3ba40] Opening 'C:/Users/kand8/Documents/School 19-20/Animation/DGM2620/frame0076.png' for reading
[file @ 0000027cc3cbd240] Setting default whitelist 'file,crypto'
[AVIOContext @ 0000027cc3a7e7c0] Statistics: 361648 bytes read, 0 seeks
[libx264 @ 0000027cc38d6580] frame=  15 QP=19.31 NAL=2 Slice:P Poc:30  I:574  P:1064 SKIP:6942 size=15517 bytes
[image2 @ 0000027cc2a3ba40] Opening 'C:/Users/kand8/Documents/School 19-20/Animation/DGM2620/frame0077.png' for reading
[file @ 0000027cc3cbc440] Setting default whitelist 'file,crypto'
[AVIOContext @ 0000027cc3a7e680] Statistics: 362766 bytes read, 0 seeks
[libx264 @ 0000027cc38d6580] frame=  16 QP=19.00 NAL=2 Slice:P Poc:32  I:550  P:776  SKIP:7254 size=13625 bytes
[image2 @ 0000027cc2a3ba40] Opening 'C:/Users/kand8/Documents/School 19-20/Animation/DGM2620/frame0078.png' for reading
[file @ 0000027cc3cbc140] Setting default whitelist 'file,crypto'
[AVIOContext @ 0000027cc3a7e3c0] Statistics: 346906 bytes read, 0 seeks
[libx264 @ 0000027cc38d6580] frame=  17 QP=19.83 NAL=2 Slice:P Poc:34  I:515  P:782  SKIP:7283 size=12526 bytes
[image2 @ 0000027cc2a3ba40] Opening 'C:/Users/kand8/Documents/School 19-20/Animation/DGM2620/frame0079.png' for reading
[file @ 0000027cc3cbc740] Setting default whitelist 'file,crypto'
[AVIOContext @ 0000027cc3a7dd40] Statistics: 331357 bytes read, 0 seeks
[libx264 @ 0000027cc38d6580] frame=  18 QP=20.74 NAL=2 Slice:P Poc:36  I:480  P:718  SKIP:7382 size=13673 bytes
[image2 @ 0000027cc2a3ba40] Opening 'C:/Users/kand8/Documents/School 19-20/Animation/DGM2620/frame0080.png' for reading
[file @ 0000027cc3cbcf40] Setting default whitelist 'file,crypto'
[AVIOContext @ 0000027cc3a7dc00] Statistics: 330565 bytes read, 0 seeks
[libx264 @ 0000027cc38d6580] frame=  19 QP=20.86 NAL=2 Slice:P Poc:38  I:306  P:871  SKIP:7403 size=10861 bytes
[image2 @ 0000027cc2a3ba40] Opening 'C:/Users/kand8/Documents/School 19-20/Animation/DGM2620/frame0081.png' for reading
[file @ 0000027cc3cbd840] Setting default whitelist 'file,crypto'
[AVIOContext @ 0000027cc3a7de80] Statistics: 329612 bytes read, 0 seeks
[libx264 @ 0000027cc38d6580] frame=  20 QP=20.91 NAL=2 Slice:P Poc:40  I:447  P:691  SKIP:7442 size=12843 bytes
frame=   74 fps= 28 q=28.0 size=     256kB time=00:00:00.83 bitrate=2516.8kbits/s speed=0.32x    [image2 @ 0000027cc2a3ba40] Opening 'C:/Users/kand8/Documents/School 19-20/Animation/DGM2620/frame0082.png' for reading
[file @ 0000027cc3cbc340] Setting default whitelist 'file,crypto'
[AVIOContext @ 0000027cc3a7e140] Statistics: 329612 bytes read, 0 seeks
[libx264 @ 0000027cc38d6580] frame=  21 QP=20.53 NAL=2 Slice:P Poc:42  I:352  P:793  SKIP:7435 size=11086 bytes
[image2 @ 0000027cc2a3ba40] Opening 'C:/Users/kand8/Documents/School 19-20/Animation/DGM2620/frame0083.png' for reading
[file @ 0000027cc3cbcb40] Setting default whitelist 'file,crypto'
[AVIOContext @ 0000027cc3a7e540] Statistics: 329612 bytes read, 0 seeks
[libx264 @ 0000027cc38d6580] frame=  22 QP=21.25 NAL=2 Slice:P Poc:44  I:401  P:728  SKIP:7451 size=12011 bytes
[image2 @ 0000027cc2a3ba40] Opening 'C:/Users/kand8/Documents/School 19-20/Animation/DGM2620/frame0084.png' for reading
[file @ 0000027cc3cbcc40] Setting default whitelist 'file,crypto'
[AVIOContext @ 0000027cc3a7e7c0] Statistics: 329612 bytes read, 0 seeks
[libx264 @ 0000027cc38d6580] frame=  23 QP=21.02 NAL=2 Slice:P Poc:46  I:321  P:792  SKIP:7467 size=9888 bytes
[image2 @ 0000027cc2a3ba40] Opening 'C:/Users/kand8/Documents/School 19-20/Animation/DGM2620/frame0085.png' for reading
[file @ 0000027cc3cbd540] Setting default whitelist 'file,crypto'
[AVIOContext @ 0000027cc3a7e540] Statistics: 329612 bytes read, 0 seeks
[libx264 @ 0000027cc38d6580] frame=  24 QP=20.84 NAL=2 Slice:P Poc:48  I:359  P:727  SKIP:7494 size=11005 bytes
[image2 @ 0000027cc2a3ba40] Opening 'C:/Users/kand8/Documents/School 19-20/Animation/DGM2620/frame0086.png' for reading
[file @ 0000027cc3cbc240] Setting default whitelist 'file,crypto'
[AVIOContext @ 0000027cc3a7e280] Statistics: 329612 bytes read, 0 seeks
[libx264 @ 0000027cc38d6580] frame=  25 QP=20.61 NAL=2 Slice:P Poc:50  I:356  P:769  SKIP:7455 size=12673 bytes
[image2 @ 0000027cc2a3ba40] Opening 'C:/Users/kand8/Documents/School 19-20/Animation/DGM2620/frame0087.png' for reading
[file @ 0000027cc3cbcd40] Setting default whitelist 'file,crypto'
[AVIOContext @ 0000027cc3a7e680] Statistics: 329612 bytes read, 0 seeks
[libx264 @ 0000027cc38d6580] frame=  26 QP=20.78 NAL=2 Slice:P Poc:52  I:365  P:817  SKIP:7398 size=12903 bytes
[image2 @ 0000027cc2a3ba40] Opening 'C:/Users/kand8/Documents/School 19-20/Animation/DGM2620/frame0088.png' for reading
[file @ 0000027cc3cbcb40] Setting default whitelist 'file,crypto'
[AVIOContext @ 0000027cc3a7dc00] Statistics: 329612 bytes read, 0 seeks
[libx264 @ 0000027cc38d6580] frame=  27 QP=21.01 NAL=2 Slice:P Poc:54  I:457  P:867  SKIP:7256 size=14882 bytes
[image2 @ 0000027cc2a3ba40] Opening 'C:/Users/kand8/Documents/School 19-20/Animation/DGM2620/frame0089.png' for reading
[file @ 0000027cc3cbcf40] Setting default whitelist 'file,crypto'
[AVIOContext @ 0000027cc3a7e140] Statistics: 329612 bytes read, 0 seeks
[libx264 @ 0000027cc38d6580] frame=  28 QP=21.32 NAL=2 Slice:P Poc:56  I:436  P:941  SKIP:7203 size=15153 bytes
[image2 @ 0000027cc2a3ba40] Opening 'C:/Users/kand8/Documents/School 19-20/Animation/DGM2620/frame0090.png' for reading
[file @ 0000027cc3cbcc40] Setting default whitelist 'file,crypto'
[AVIOContext @ 0000027cc3a7e140] Statistics: 329612 bytes read, 0 seeks
[libx264 @ 0000027cc38d6580] frame=  29 QP=20.82 NAL=2 Slice:P Poc:58  I:421  P:995  SKIP:7164 size=13352 bytes
[image2 @ 0000027cc2a3ba40] Opening 'C:/Users/kand8/Documents/School 19-20/Animation/DGM2620/frame0091.png' for reading
[file @ 0000027cc3cbcb40] Setting default whitelist 'file,crypto'
[AVIOContext @ 0000027cc3a7dc00] Statistics: 329612 bytes read, 0 seeks
[libx264 @ 0000027cc38d6580] frame=  30 QP=20.48 NAL=2 Slice:P Poc:60  I:415  P:969  SKIP:7196 size=13026 bytes
[image2 @ 0000027cc2a3ba40] Opening 'C:/Users/kand8/Documents/School 19-20/Animation/DGM2620/frame0092.png' for reading
[file @ 0000027cc3cbc540] Setting default whitelist 'file,crypto'
[AVIOContext @ 0000027cc3a7e7c0] Statistics: 329612 bytes read, 0 seeks
[libx264 @ 0000027cc38d6580] frame=  31 QP=20.46 NAL=2 Slice:P Poc:62  I:547  P:903  SKIP:7130 size=14280 bytes
[image2 @ 0000027cc2a3ba40] Opening 'C:/Users/kand8/Documents/School 19-20/Animation/DGM2620/frame0093.png' for reading
[file @ 0000027cc3cbd240] Setting default whitelist 'file,crypto'
[AVIOContext @ 0000027cc3a7e7c0] Statistics: 329612 bytes read, 0 seeks
[libx264 @ 0000027cc38d6580] frame=  32 QP=20.58 NAL=2 Slice:P Poc:64  I:594  P:792  SKIP:7194 size=13773 bytes
[image2 @ 0000027cc2a3ba40] Opening 'C:/Users/kand8/Documents/School 19-20/Animation/DGM2620/frame0094.png' for reading
[file @ 0000027cc3cbda40] Setting default whitelist 'file,crypto'
[AVIOContext @ 0000027cc3a7dd40] Statistics: 329612 bytes read, 0 seeks
[libx264 @ 0000027cc38d6580] frame=  33 QP=20.52 NAL=2 Slice:P Poc:66  I:419  P:949  SKIP:7212 size=12607 bytes
[image2 @ 0000027cc2a3ba40] Opening 'C:/Users/kand8/Documents/School 19-20/Animation/DGM2620/frame0095.png' for reading
[file @ 0000027cc3cbca40] Setting default whitelist 'file,crypto'
[AVIOContext @ 0000027cc3a7e7c0] Statistics: 329612 bytes read, 0 seeks
[libx264 @ 0000027cc38d6580] frame=  34 QP=20.82 NAL=2 Slice:P Poc:68  I:450  P:1022 SKIP:7108 size=17300 bytes
[image2 @ 0000027cc2a3ba40] Opening 'C:/Users/kand8/Documents/School 19-20/Animation/DGM2620/frame0096.png' for reading
[file @ 0000027cc3cbc340] Setting default whitelist 'file,crypto'
[AVIOContext @ 0000027cc3a7e680] Statistics: 329612 bytes read, 0 seeks
[libx264 @ 0000027cc38d6580] frame=  35 QP=19.81 NAL=2 Slice:P Poc:70  I:492  P:901  SKIP:7187 size=15161 bytes
frame=   89 fps= 29 q=28.0 size=     512kB time=00:00:01.45 bitrate=2876.2kbits/s speed=0.469x    [image2 @ 0000027cc2a3ba40] Opening 'C:/Users/kand8/Documents/School 19-20/Animation/DGM2620/frame0097.png' for reading
[file @ 0000027cc3cbc040] Setting default whitelist 'file,crypto'
[AVIOContext @ 0000027cc3a7dc00] Statistics: 329612 bytes read, 0 seeks
[libx264 @ 0000027cc38d6580] frame=  36 QP=19.40 NAL=2 Slice:P Poc:72  I:465  P:896  SKIP:7219 size=15263 bytes
[image2 @ 0000027cc2a3ba40] Opening 'C:/Users/kand8/Documents/School 19-20/Animation/DGM2620/frame0098.png' for reading
[file @ 0000027cc3cbca40] Setting default whitelist 'file,crypto'
[AVIOContext @ 0000027cc3a7dac0] Statistics: 329612 bytes read, 0 seeks
[libx264 @ 0000027cc38d6580] frame=  37 QP=19.37 NAL=2 Slice:P Poc:74  I:394  P:910  SKIP:7276 size=13302 bytes
[image2 @ 0000027cc2a3ba40] Opening 'C:/Users/kand8/Documents/School 19-20/Animation/DGM2620/frame0099.png' for reading
[file @ 0000027cc3cbcd40] Setting default whitelist 'file,crypto'
[AVIOContext @ 0000027cc3a7e280] Statistics: 329612 bytes read, 0 seeks
[libx264 @ 0000027cc38d6580] frame=  38 QP=20.22 NAL=2 Slice:P Poc:76  I:347  P:938  SKIP:7295 size=12224 bytes
[image2 @ 0000027cc2a3ba40] Opening 'C:/Users/kand8/Documents/School 19-20/Animation/DGM2620/frame0100.png' for reading
[file @ 0000027cc3cbd240] Setting default whitelist 'file,crypto'
[AVIOContext @ 0000027cc3a7e140] Statistics: 329612 bytes read, 0 seeks
[libx264 @ 0000027cc38d6580] frame=  39 QP=19.40 NAL=2 Slice:P Poc:78  I:407  P:864  SKIP:7309 size=13535 bytes
[libx264 @ 0000027cc38d6580] frame=  40 QP=18.93 NAL=2 Slice:P Poc:80  I:558  P:900  SKIP:7122 size=14694 bytes
[libx264 @ 0000027cc38d6580] frame=  41 QP=18.62 NAL=2 Slice:P Poc:82  I:339  P:872  SKIP:7369 size=10120 bytes
[libx264 @ 0000027cc38d6580] frame=  42 QP=19.66 NAL=2 Slice:P Poc:84  I:297  P:756  SKIP:7527 size=9019 bytes
[libx264 @ 0000027cc38d6580] frame=  43 QP=18.16 NAL=2 Slice:P Poc:86  I:273  P:737  SKIP:7570 size=7764 bytes
[libx264 @ 0000027cc38d6580] frame=  44 QP=18.63 NAL=2 Slice:P Poc:88  I:348  P:707  SKIP:7525 size=10366 bytes
[libx264 @ 0000027cc38d6580] frame=  45 QP=17.73 NAL=2 Slice:P Poc:90  I:422  P:731  SKIP:7427 size=11469 bytes
[libx264 @ 0000027cc38d6580] frame=  46 QP=18.32 NAL=2 Slice:P Poc:92  I:353  P:716  SKIP:7511 size=9746 bytes
[libx264 @ 0000027cc38d6580] frame=  47 QP=18.21 NAL=2 Slice:P Poc:94  I:362  P:592  SKIP:7626 size=9339 bytes
[out_0_0 @ 0000027cc2ab2dc0] EOF on sink link out_0_0:default.
No more output streams to write to, finishing.
[libx264 @ 0000027cc38d6580] frame=  48 QP=18.66 NAL=2 Slice:P Poc:96  I:242  P:608  SKIP:7730 size=7642 bytes
[libx264 @ 0000027cc38d6580] frame=  49 QP=19.65 NAL=2 Slice:P Poc:98  I:303  P:492  SKIP:7785 size=9784 bytes
[libx264 @ 0000027cc38d6580] frame=  50 QP=20.73 NAL=2 Slice:P Poc:100 I:262  P:574  SKIP:7744 size=8403 bytes
[libx264 @ 0000027cc38d6580] frame=  51 QP=19.34 NAL=2 Slice:P Poc:102 I:284  P:506  SKIP:7790 size=8534 bytes
[libx264 @ 0000027cc38d6580] frame=  52 QP=17.91 NAL=2 Slice:P Poc:104 I:255  P:594  SKIP:7731 size=7290 bytes
[libx264 @ 0000027cc38d6580] frame=  53 QP=17.81 NAL=2 Slice:P Poc:106 I:304  P:427  SKIP:7849 size=8237 bytes
[libx264 @ 0000027cc38d6580] frame=  54 QP=18.27 NAL=2 Slice:P Poc:108 I:196  P:431  SKIP:7953 size=6064 bytes
[libx264 @ 0000027cc38d6580] frame=  55 QP=17.24 NAL=2 Slice:P Poc:110 I:135  P:465  SKIP:7980 size=5221 bytes
[libx264 @ 0000027cc38d6580] frame=  56 QP=16.87 NAL=2 Slice:P Poc:112 I:113  P:480  SKIP:7987 size=4202 bytes
[libx264 @ 0000027cc38d6580] frame=  57 QP=16.32 NAL=2 Slice:P Poc:114 I:107  P:384  SKIP:8089 size=4666 bytes
[libx264 @ 0000027cc38d6580] frame=  58 QP=15.57 NAL=2 Slice:P Poc:116 I:134  P:355  SKIP:8091 size=4325 bytes
[libx264 @ 0000027cc38d6580] frame=  59 QP=15.79 NAL=2 Slice:P Poc:118 I:146  P:340  SKIP:8094 size=4315 bytes
[libx264 @ 0000027cc38d6580] frame=  60 QP=15.00 NAL=2 Slice:P Poc:120 I:114  P:339  SKIP:8127 size=3760 bytes
[libx264 @ 0000027cc38d6580] frame=  61 QP=16.35 NAL=2 Slice:P Poc:122 I:136  P:265  SKIP:8179 size=3871 bytes
[libx264 @ 0000027cc38d6580] frame=  62 QP=16.59 NAL=2 Slice:P Poc:124 I:96   P:299  SKIP:8185 size=3396 bytes
[libx264 @ 0000027cc38d6580] frame=  63 QP=15.13 NAL=2 Slice:P Poc:126 I:73   P:252  SKIP:8255 size=2169 bytes
[libx264 @ 0000027cc38d6580] frame=  64 QP=15.54 NAL=2 Slice:P Poc:128 I:61   P:179  SKIP:8340 size=1901 bytes
[libx264 @ 0000027cc38d6580] frame=  65 QP=16.06 NAL=2 Slice:P Poc:130 I:33   P:191  SKIP:8356 size=1474 bytes
[libx264 @ 0000027cc38d6580] frame=  66 QP=16.28 NAL=2 Slice:P Poc:132 I:29   P:144  SKIP:8407 size=1254 bytes
[libx264 @ 0000027cc38d6580] frame=  67 QP=15.48 NAL=2 Slice:P Poc:134 I:21   P:148  SKIP:8411 size=1008 bytes
[libx264 @ 0000027cc38d6580] frame=  68 QP=15.47 NAL=2 Slice:P Poc:136 I:19   P:140  SKIP:8421 size=1038 bytes
[libx264 @ 0000027cc38d6580] frame=  69 QP=15.63 NAL=2 Slice:P Poc:138 I:55   P:120  SKIP:8405 size=1385 bytes
[libx264 @ 0000027cc38d6580] frame=  70 QP=17.02 NAL=2 Slice:P Poc:140 I:115  P:162  SKIP:8303 size=2239 bytes
[libx264 @ 0000027cc38d6580] frame=  71 QP=16.01 NAL=2 Slice:P Poc:142 I:116  P:263  SKIP:8201 size=2243 bytes
[libx264 @ 0000027cc38d6580] frame=  72 QP=16.60 NAL=2 Slice:P Poc:144 I:181  P:247  SKIP:8152 size=3284 bytes
[libx264 @ 0000027cc38d6580] frame=  73 QP=14.69 NAL=2 Slice:P Poc:146 I:173  P:359  SKIP:8048 size=3816 bytes
[libx264 @ 0000027cc38d6580] frame=  74 QP=15.40 NAL=2 Slice:P Poc:148 I:214  P:372  SKIP:7994 size=4729 bytes
[libx264 @ 0000027cc38d6580] frame=  75 QP=14.56 NAL=2 Slice:P Poc:150 I:207  P:411  SKIP:7962 size=3679 bytes
[libx264 @ 0000027cc38d6580] frame=  76 QP=14.09 NAL=2 Slice:P Poc:152 I:171  P:372  SKIP:8037 size=3366 bytes
[libx264 @ 0000027cc38d6580] frame=  77 QP=14.35 NAL=2 Slice:P Poc:154 I:204  P:339  SKIP:8037 size=3365 bytes
[libx264 @ 0000027cc38d6580] frame=  78 QP=13.47 NAL=2 Slice:P Poc:156 I:180  P:329  SKIP:8071 size=2041 bytes
[libx264 @ 0000027cc38d6580] frame=  79 QP=13.05 NAL=2 Slice:P Poc:158 I:70   P:208  SKIP:8302 size=684 bytes
[libx264 @ 0000027cc38d6580] frame=  80 QP=13.18 NAL=2 Slice:P Poc:160 I:6    P:135  SKIP:8439 size=475 bytes
[libx264 @ 0000027cc38d6580] frame=  81 QP=13.18 NAL=2 Slice:P Poc:162 I:3    P:125  SKIP:8452 size=444 bytes
[libx264 @ 0000027cc38d6580] frame=  82 QP=14.00 NAL=2 Slice:P Poc:164 I:5    P:73   SKIP:8502 size=286 bytes
[libx264 @ 0000027cc38d6580] frame=  83 QP=14.00 NAL=2 Slice:P Poc:166 I:3    P:56   SKIP:8521 size=221 bytes
[libx264 @ 0000027cc38d6580] frame=  84 QP=14.00 NAL=2 Slice:P Poc:168 I:3    P:53   SKIP:8524 size=213 bytes
[libx264 @ 0000027cc38d6580] frame=  85 QP=14.00 NAL=2 Slice:P Poc:170 I:3    P:53   SKIP:8524 size=213 bytes
[libx264 @ 0000027cc38d6580] frame=  86 QP=14.00 NAL=2 Slice:P Poc:172 I:3    P:53   SKIP:8524 size=213 bytes
[libx264 @ 0000027cc38d6580] frame=  87 QP=14.00 NAL=2 Slice:P Poc:174 I:3    P:53   SKIP:8524 size=213 bytes
[libx264 @ 0000027cc38d6580] frame=  88 QP=14.00 NAL=2 Slice:P Poc:176 I:3    P:53   SKIP:8524 size=213 bytes
[libx264 @ 0000027cc38d6580] frame=  89 QP=14.00 NAL=2 Slice:P Poc:178 I:3    P:53   SKIP:8524 size=213 bytes
[libx264 @ 0000027cc38d6580] frame=  90 QP=14.00 NAL=2 Slice:P Poc:180 I:3    P:53   SKIP:8524 size=213 bytes
[libx264 @ 0000027cc38d6580] frame=  91 QP=14.00 NAL=2 Slice:P Poc:182 I:3    P:53   SKIP:8524 size=213 bytes
[libx264 @ 0000027cc38d6580] frame=  92 QP=14.00 NAL=2 Slice:P Poc:184 I:3    P:49   SKIP:8528 size=200 bytes
[libx264 @ 0000027cc38d6580] frame=  93 QP=14.00 NAL=2 Slice:P Poc:186 I:3    P:48   SKIP:8529 size=197 bytes
[libx264 @ 0000027cc38d6580] frame=  94 QP=14.36 NAL=2 Slice:P Poc:188 I:3    P:40   SKIP:8537 size=169 bytes
[libx264 @ 0000027cc38d6580] frame=  95 QP=17.30 NAL=2 Slice:P Poc:190 I:0    P:15   SKIP:8565 size=66 bytes
[libx264 @ 0000027cc38d6580] frame=  96 QP=17.51 NAL=2 Slice:P Poc:192 I:0    P:13   SKIP:8567 size=61 bytes
[libx264 @ 0000027cc38d6580] frame=  97 QP=18.30 NAL=2 Slice:P Poc:194 I:1    P:12   SKIP:8567 size=57 bytes
[libx264 @ 0000027cc38d6580] frame=  98 QP=18.35 NAL=2 Slice:P Poc:196 I:1    P:6    SKIP:8573 size=39 bytes
[libx264 @ 0000027cc38d6580] frame=  99 QP=17.75 NAL=2 Slice:P Poc:198 I:0    P:21   SKIP:8559 size=87 bytes
[libx264 @ 0000027cc38d6580] frame= 100 QP=19.05 NAL=2 Slice:P Poc:200 I:2    P:20   SKIP:8558 size=93 bytes
frame=  101 fps= 27 q=-1.0 Lsize=     906kB time=00:00:04.16 bitrate=1780.4kbits/s speed=1.09x    
[AVIOContext @ 0000027cc2a3b900] Statistics: 0 seeks, 7 writeouts
video:904kB audio:0kB subtitle:0kB other streams:0kB global headers:0kB muxing overhead: 0.133901%
Input file #0 (C:/Users/kand8/Documents/School 19-20/Animation/DGM2620/frame%04d.png):
  Input stream #0:0 (video): 101 packets read (45649307 bytes); 101 frames decoded; 
  Total: 101 packets (45649307 bytes) demuxed
Output file #0 (C:/Users/kand8/Documents/School 19-20/Animation/DGM2620/Fire Burst Assignment.mp4):
  Output stream #0:0 (video): 101 frames encoded; 101 packets muxed (926059 bytes); 
  Total: 101 packets (926059 bytes) muxed
101 frames successfully decoded, 0 decoding errors
[AVIOContext @ 0000027cc38d7980] Statistics: 2 seeks, 7 writeouts
[libx264 @ 0000027cc38d6580] frame I:1     Avg QP:13.40  size: 20880
[libx264 @ 0000027cc38d6580] frame P:100   Avg QP:17.80  size:  9046
[libx264 @ 0000027cc38d6580] mb I  I16..4: 90.7%  0.0%  9.3%
[libx264 @ 0000027cc38d6580] mb P  I16..4:  1.3%  0.0%  2.5%  P16..4:  4.5%  1.6%  0.5%  0.0%  0.0%    skip:89.6%
[libx264 @ 0000027cc38d6580] coded y,uvDC,uvAC intra: 32.6% 69.0% 54.0% inter: 1.2% 3.4% 0.9%
[libx264 @ 0000027cc38d6580] i16 v,h,dc,p: 68% 18%  8%  7%
[libx264 @ 0000027cc38d6580] i4 v,h,dc,ddl,ddr,vr,hd,vl,hu: 22% 14% 28%  9%  6%  6%  5%  7%  4%
[libx264 @ 0000027cc38d6580] i8c dc,h,v,p: 55% 17% 22%  6%
[libx264 @ 0000027cc38d6580] ref P L0: 53.4% 25.6% 21.0%
[libx264 @ 0000027cc38d6580] kb/s:1759.23
